<?xml version="1.0" encoding="utf-8"?>
<!-- Generator: Adobe Illustrator 27.5.0, SVG Export Plug-In . SVG Version: 6.00 Build 0)  -->
<svg version="1.1" xmlns="http://www.w3.org/2000/svg" xmlns:xlink="http://www.w3.org/1999/xlink" x="0px" y="0px"
	 viewBox="0 0 750 500" style="enable-background:new 0 0 750 500;" xml:space="preserve">
<g id="BACKGROUND">
	<rect style="opacity:0.5;fill:#E4EEFD;" width="750" height="500"/>
</g>
<g id="OBJECTS">
	<polygon style="opacity:0.15;fill:#81BCF7;" points="393.871,110.783 541.131,117.264 541.131,125.647 393.872,119.166 	"/>
	<ellipse style="fill:#D6E6FD;" cx="375" cy="421.241" rx="289.745" ry="11.388"/>
	<g>
		<g>
			<path style="fill:#010F19;" d="M404.911,340.184c-16.589,0-30.088,17.469-30.088,38.937c0,21.468,13.499,38.937,30.088,38.937
				h12.438v-77.874H404.911z"/>
			<g>
				<path style="fill:#05151E;" d="M417.349,416.559c-15.764,0-28.588-16.794-28.588-37.438c0-20.643,12.824-37.436,28.588-37.436
					c15.763,0,28.587,16.794,28.587,37.436C445.935,399.765,433.111,416.559,417.349,416.559z"/>
				<g>
					<path style="fill:#010F19;" d="M417.348,343.184c14.936,0,27.088,16.121,27.088,35.937c0,19.816-12.152,35.937-27.088,35.937
						c-14.936,0-27.088-16.121-27.088-35.937C390.261,359.306,402.412,343.184,417.348,343.184 M417.348,340.184
						c-16.589,0-30.088,17.469-30.088,38.937c0,21.468,13.499,38.937,30.088,38.937c16.589,0,30.088-17.469,30.088-38.937
						C447.436,357.653,433.937,340.184,417.348,340.184L417.348,340.184z"/>
				</g>
			</g>
		</g>
		<g>
			<path style="fill:#010F19;" d="M346.923,381.358h101.268c8.402,0,16.455-3.359,22.366-9.33l13.023-13.154l126.014,1
				c2.084,0,4.11-0.386,5.992-1.107c4.692-1.795,8.195-5.798,9.745-10.576l6.009-18.522h-155.5l-128.918-14.374V381.358z"/>
			<g>
				<path style="fill:#05151E;" d="M603.842,319.046v65.393c0,6.357-5.154,11.511-11.511,11.511H545.63l-2.059-63.837l32.33-20.387
					L603.842,319.046z"/>
			</g>
			<g>
				<path style="fill:#010F19;" d="M254.879,369.448v12.195h28.006c0,0,0.188-8.843,3.763-14.299L254.879,369.448z"/>
				<g>
					<path style="fill:#FC6A64;" d="M264.976,375.877L264.976,375.877c0,1.63,1.313,2.955,2.943,2.971l3.18,0.03
						c1.652,0.016,3-1.319,3-2.971v0c0-1.63-1.313-2.955-2.943-2.971l-3.18-0.03C266.323,372.89,264.976,374.225,264.976,375.877z"
						/>
					<path style="fill:#FC6A64;" d="M267.975,372.906c-1.652-0.016-2.999,1.319-2.999,2.971c0,0.573,0.169,1.104,0.451,1.558
						c0.146,0.024,0.293,0.048,0.446,0.049l3.18,0.03c1.652,0.016,3-1.319,3-2.971l0,0c0-0.573-0.169-1.104-0.451-1.558
						c-0.146-0.024-0.293-0.048-0.446-0.049L267.975,372.906z"/>
				</g>
			</g>
			<g>
				<g>
					<path style="fill:#072035;" d="M535.357,346.822c-16.589,0-30.088,17.469-30.088,38.937s13.499,38.937,30.088,38.937h12.438
						v-77.874H535.357z"/>
					<g>
						<path style="fill:#0B3053;" d="M547.795,423.415c-15.884,0-28.807-16.893-28.807-37.656s12.923-37.655,28.807-37.655
							c15.884,0,28.806,16.892,28.806,37.655S563.679,423.415,547.795,423.415z"/>
						<path style="fill:#072035;" d="M547.795,349.384c15.178,0,27.526,16.318,27.526,36.375c0,20.057-12.348,36.375-27.526,36.375
							c-15.178,0-27.526-16.318-27.526-36.375C520.269,365.702,532.617,349.384,547.795,349.384 M547.795,346.822
							c-16.589,0-30.088,17.469-30.088,38.937s13.499,38.937,30.088,38.937s30.088-17.469,30.088-38.937
							S564.384,346.822,547.795,346.822L547.795,346.822z"/>
					</g>
				</g>
				<g>
					<path style="fill:#072035;" d="M554.56,346.822c-16.589,0-30.088,17.469-30.088,38.937s13.499,38.937,30.088,38.937h12.438
						v-77.874H554.56z"/>
					<g>
						<path style="fill:#0B3053;" d="M566.997,423.415c-15.884,0-28.806-16.893-28.806-37.656s12.922-37.655,28.806-37.655
							s28.807,16.892,28.807,37.655S582.881,423.415,566.997,423.415z"/>
						<path style="fill:#072035;" d="M566.997,349.384c15.178,0,27.526,16.318,27.526,36.375c0,20.057-12.348,36.375-27.526,36.375
							c-15.178,0-27.526-16.318-27.526-36.375C539.472,365.702,551.82,349.384,566.997,349.384 M566.997,346.822
							c-16.589,0-30.088,17.469-30.088,38.937s13.499,38.937,30.088,38.937c16.589,0,30.088-17.469,30.088-38.937
							S583.586,346.822,566.997,346.822L566.997,346.822z"/>
					</g>
					<g>
						<ellipse style="fill:#1454AE;" cx="566.997" cy="385.759" rx="15.853" ry="20.515"/>
						<g>
							<path style="fill:#0B3053;" d="M566.997,367.268c-0.956,0-1.735,1.008-1.735,2.245c0,1.243,0.779,2.252,1.735,2.252
								c0.961,0,1.74-1.009,1.74-2.252C568.737,368.277,567.958,367.268,566.997,367.268z"/>
							<path style="fill:#0B3053;" d="M556.893,395.658c-0.678,0.877-0.678,2.3,0,3.177c0.326,0.428,0.763,0.663,1.228,0.663
								c0.464,0,0.902-0.235,1.227-0.663c0.678-0.877,0.678-2.3,0-3.177c-0.326-0.425-0.775-0.637-1.226-0.637
								S557.222,395.233,556.893,395.658z"/>
							<path style="fill:#0B3053;" d="M556.893,372.684c-0.678,0.877-0.678,2.307,0,3.184c0.326,0.421,0.763,0.656,1.228,0.656
								c0.464,0,0.902-0.235,1.227-0.656c0.678-0.877,0.678-2.307,0-3.184c-0.326-0.425-0.775-0.637-1.226-0.637
								S557.222,372.259,556.893,372.684z"/>
							<path style="fill:#0B3053;" d="M554.443,383.514c-0.956,0-1.735,1.008-1.735,2.245c0,1.243,0.779,2.252,1.735,2.252
								c0.961,0,1.74-1.008,1.74-2.252C556.183,384.523,555.404,383.514,554.443,383.514z"/>
							<path style="fill:#0B3053;" d="M574.646,395.658c-0.678,0.877-0.678,2.3,0,3.177c0.336,0.442,0.785,0.663,1.228,0.663
								s0.891-0.221,1.228-0.663c0.678-0.877,0.678-2.3,0-3.177c-0.339-0.439-0.783-0.658-1.228-0.658
								C575.429,395,574.985,395.219,574.646,395.658z"/>
							<path style="fill:#0B3053;" d="M574.646,372.684c-0.678,0.877-0.678,2.307,0,3.184c0.336,0.435,0.785,0.656,1.228,0.656
								s0.891-0.221,1.228-0.656c0.678-0.877,0.678-2.307,0-3.184c-0.339-0.439-0.783-0.658-1.228-0.658
								C575.429,372.026,574.985,372.245,574.646,372.684z"/>
							<path style="fill:#0B3053;" d="M566.997,399.754c-0.956,0-1.735,1.008-1.735,2.252c0,1.243,0.779,2.252,1.735,2.252
								c0.961,0,1.74-1.009,1.74-2.252C568.737,400.762,567.958,399.754,566.997,399.754z"/>
							<path style="fill:#0B3053;" d="M579.551,383.514c-0.961,0-1.74,1.008-1.74,2.245c0,1.243,0.779,2.252,1.74,2.252
								c0.956,0,1.735-1.008,1.735-2.252C581.286,384.523,580.507,383.514,579.551,383.514z"/>
						</g>
						<path style="fill:#072035;" d="M566.997,373.685c-5.146,0-9.33,5.422-9.33,12.074c0,6.659,4.185,12.074,9.33,12.074
							c5.145,0,9.33-5.415,9.33-12.074C576.327,379.107,572.143,373.685,566.997,373.685z"/>
					</g>
				</g>
				<g>
					<g>
						<g>
							<path style="fill:#072035;" d="M533.166,346.822c-16.589,0-30.088,17.469-30.088,38.937s13.499,38.937,30.088,38.937h12.438
								v-77.874H533.166z"/>
							<g>
								<path style="fill:#0B3053;" d="M545.604,423.415c-15.884,0-28.807-16.893-28.807-37.656s12.923-37.655,28.807-37.655
									c15.884,0,28.806,16.892,28.806,37.655S561.487,423.415,545.604,423.415z"/>
								<path style="fill:#072035;" d="M545.603,349.384c15.178,0,27.526,16.318,27.526,36.375
									c0,20.057-12.348,36.375-27.526,36.375c-15.178,0-27.526-16.318-27.526-36.375
									C518.078,365.702,530.425,349.384,545.603,349.384 M545.603,346.822c-16.589,0-30.088,17.469-30.088,38.937
									s13.499,38.937,30.088,38.937c16.589,0,30.088-17.469,30.088-38.937S562.192,346.822,545.603,346.822L545.603,346.822z"/>
							</g>
						</g>
						<g>
							<path style="fill:#072035;" d="M554.56,346.822c-16.589,0-30.088,17.469-30.088,38.937s13.499,38.937,30.088,38.937h12.438
								v-77.874H554.56z"/>
							<g>
								<path style="fill:#0B3053;" d="M566.997,423.415c-15.884,0-28.806-16.893-28.806-37.656s12.922-37.655,28.806-37.655
									s28.807,16.892,28.807,37.655S582.881,423.415,566.997,423.415z"/>
								<path style="fill:#072035;" d="M566.997,349.384c15.178,0,27.526,16.318,27.526,36.375
									c0,20.057-12.348,36.375-27.526,36.375c-15.178,0-27.526-16.318-27.526-36.375
									C539.472,365.702,551.82,349.384,566.997,349.384 M566.997,346.822c-16.589,0-30.088,17.469-30.088,38.937
									s13.499,38.937,30.088,38.937c16.589,0,30.088-17.469,30.088-38.937S583.586,346.822,566.997,346.822L566.997,346.822z"/>
							</g>
							<g>
								<ellipse style="fill:#1454AE;" cx="566.997" cy="385.759" rx="15.853" ry="20.515"/>
								<g>
									<path style="fill:#0B3053;" d="M566.997,367.268c-0.956,0-1.735,1.008-1.735,2.245c0,1.243,0.779,2.252,1.735,2.252
										c0.961,0,1.74-1.009,1.74-2.252C568.737,368.277,567.958,367.268,566.997,367.268z"/>
									<path style="fill:#0B3053;" d="M556.893,395.658c-0.678,0.877-0.678,2.3,0,3.177c0.326,0.428,0.763,0.663,1.228,0.663
										c0.464,0,0.902-0.235,1.227-0.663c0.678-0.877,0.678-2.3,0-3.177c-0.326-0.425-0.775-0.637-1.226-0.637
										S557.222,395.233,556.893,395.658z"/>
									<path style="fill:#0B3053;" d="M556.893,372.684c-0.678,0.877-0.678,2.307,0,3.184c0.326,0.421,0.763,0.656,1.228,0.656
										c0.464,0,0.902-0.235,1.227-0.656c0.678-0.877,0.678-2.307,0-3.184c-0.326-0.425-0.775-0.637-1.226-0.637
										S557.222,372.259,556.893,372.684z"/>
									<path style="fill:#0B3053;" d="M554.443,383.514c-0.956,0-1.735,1.008-1.735,2.245c0,1.243,0.779,2.252,1.735,2.252
										c0.961,0,1.74-1.008,1.74-2.252C556.183,384.523,555.404,383.514,554.443,383.514z"/>
									<path style="fill:#0B3053;" d="M574.646,395.658c-0.678,0.877-0.678,2.3,0,3.177c0.336,0.442,0.785,0.663,1.228,0.663
										s0.891-0.221,1.228-0.663c0.678-0.877,0.678-2.3,0-3.177c-0.339-0.439-0.783-0.658-1.228-0.658
										C575.429,395,574.985,395.219,574.646,395.658z"/>
									<path style="fill:#0B3053;" d="M574.646,372.684c-0.678,0.877-0.678,2.307,0,3.184c0.336,0.435,0.785,0.656,1.228,0.656
										s0.891-0.221,1.228-0.656c0.678-0.877,0.678-2.307,0-3.184c-0.339-0.439-0.783-0.658-1.228-0.658
										C575.429,372.026,574.985,372.245,574.646,372.684z"/>
									<path style="fill:#0B3053;" d="M566.997,399.754c-0.956,0-1.735,1.008-1.735,2.252c0,1.243,0.779,2.252,1.735,2.252
										c0.961,0,1.74-1.009,1.74-2.252C568.737,400.762,567.958,399.754,566.997,399.754z"/>
									<path style="fill:#0B3053;" d="M579.551,383.514c-0.961,0-1.74,1.008-1.74,2.245c0,1.243,0.779,2.252,1.74,2.252
										c0.956,0,1.735-1.008,1.735-2.252C581.286,384.523,580.507,383.514,579.551,383.514z"/>
								</g>
								<path style="fill:#072035;" d="M566.997,373.685c-5.146,0-9.33,5.422-9.33,12.074c0,6.659,4.185,12.074,9.33,12.074
									c5.145,0,9.33-5.415,9.33-12.074C576.327,379.107,572.143,373.685,566.997,373.685z"/>
							</g>
						</g>
					</g>
				</g>
				<g>
					<path style="fill:#0B3053;" d="M526.413,346.822h34.848c-14.17,0.085-25.684,18.199-25.684,40.453c0,0.008,0,0.016,0,0.024
						c0.001,1.314-1.046,2.387-2.36,2.387h-2.259c0,0-30.322-1.601-30.322-2.41C500.636,364.974,512.202,346.822,526.413,346.822z"
						/>
					<path style="fill:#010F19;" d="M524.356,346.398l34.423,0.424c-14.17,0.085-25.684,18.199-25.684,40.453
						c0,0.81,0.02,1.613,0.05,2.411h-32.578c-1.322,0-2.413-1.064-2.413-2.386c0-0.008,0-0.016,0-0.024
						C498.154,364.974,510.144,346.398,524.356,346.398z"/>
				</g>
			</g>
		</g>
		<g>
			<g>
				<path style="fill:#05151E;" d="M658.711,305.129v41.269l-13.407-17.855l-2.425,2.425l14.198,18.908
					c1.029,1.37,2.643,2.177,4.357,2.177h5.395c1.115,0,2.018-0.904,2.018-2.018v-42.906c0-1.105-0.895-2-2-2H658.711z"/>
			</g>
			<g>
				<polygon style="fill:#1473FA;" points="404.807,330.69 658.702,333.122 658.702,89.087 404.807,75.304 				"/>
				<polygon style="fill:#6EB6FF;" points="404.807,330.69 658.702,333.122 658.702,102.087 404.807,88.304 				"/>
				<polygon style="fill:#1473FA;" points="210.383,327.69 210.383,81.304 404.807,75.304 404.807,330.69 				"/>
				<polygon style="fill:#8EC3F7;" points="210.383,327.69 210.383,94.304 404.807,88.304 404.807,330.69 				"/>
				<polygon style="opacity:0.3;fill:#8EC3F7;" points="354.301,317.815 404.807,317.815 404.807,330.69 353.322,329.883 				"/>
			</g>
			<polygon style="opacity:0.25;fill:#1473FA;" points="404.807,75.304 404.807,88.304 658.702,102.087 658.702,89.087 			"/>
			<polygon style="fill:#8EC3F7;" points="404.807,317.815 658.702,320.242 658.702,102.087 404.807,88.304 			"/>
			<g>
				<polygon style="opacity:0.2;fill:#8EC3F7;" points="405.008,317.677 405.008,90.111 658.702,103.883 658.702,320.102 				"/>
				<g>
					<polygon style="opacity:0.15;fill:#8EC3F7;" points="574.323,99.302 517.769,96.232 405.008,280.082 405.008,317.677 
						448.365,318.091 					"/>
					<polygon style="opacity:0.15;fill:#8EC3F7;" points="500.309,318.588 607.921,319.616 658.702,231.408 658.702,103.883 
						632.855,102.48 					"/>
				</g>
			</g>
			<g>
				<polygon style="opacity:0.3;fill:#8EC3F7;" points="404.807,320.815 404.807,328.69 658.702,331.122 658.702,323.242 				"/>
				<g>
					<path style="fill:#FC6A64;" d="M465.258,325.368v0.001c0,2.16,1.74,3.917,3.9,3.938l4.215,0.04
						c2.189,0.021,3.976-1.748,3.976-3.938v-0.001c0-2.16-1.74-3.917-3.9-3.938l-4.215-0.04
						C467.044,321.409,465.258,323.179,465.258,325.368z"/>
					<path style="fill:#FC6A64;" d="M489.439,325.599v0.001c0,2.16,1.74,3.917,3.9,3.938l4.215,0.04
						c2.189,0.021,3.976-1.748,3.976-3.938v-0.002c0-2.16-1.74-3.917-3.9-3.938l-4.215-0.04
						C491.225,321.641,489.439,323.41,489.439,325.599z"/>
					<path style="fill:#FC6A64;" d="M513.619,325.83v0.002c0,2.16,1.74,3.917,3.9,3.938l4.215,0.04
						c2.189,0.021,3.976-1.748,3.976-3.938v-0.002c0-2.16-1.74-3.917-3.9-3.938l-4.214-0.04
						C515.405,321.872,513.619,323.641,513.619,325.83z"/>
					<path style="fill:#FC6A64;" d="M416.897,324.906L416.897,324.906c0,2.16,1.74,3.917,3.9,3.938l4.215,0.04
						c2.19,0.021,3.976-1.748,3.976-3.938v0c0-2.16-1.74-3.917-3.9-3.938l-4.215-0.04
						C418.683,320.947,416.897,322.716,416.897,324.906z"/>
					<path style="fill:#FC6A64;" d="M441.078,325.137L441.078,325.137c0,2.16,1.74,3.917,3.9,3.938l4.214,0.04
						c2.19,0.021,3.976-1.748,3.976-3.938v-0.001c0-2.16-1.74-3.917-3.9-3.938l-4.215-0.04
						C442.864,321.178,441.078,322.947,441.078,325.137z"/>
					<path style="fill:#FC6A64;" d="M586.161,326.524v0.004c0,2.16,1.74,3.917,3.9,3.938l4.215,0.04
						c2.19,0.021,3.976-1.748,3.976-3.938v-0.004c0-2.16-1.74-3.917-3.9-3.938l-4.215-0.04
						C587.947,322.565,586.161,324.334,586.161,326.524z"/>
					<path style="fill:#FC6A64;" d="M610.341,326.755v0.004c0,2.16,1.74,3.917,3.9,3.938l4.214,0.04
						c2.189,0.021,3.975-1.748,3.975-3.938v-0.004c0-2.16-1.74-3.917-3.9-3.938l-4.214-0.04
						C612.128,322.796,610.341,324.565,610.341,326.755z"/>
					<path style="fill:#FC6A64;" d="M634.522,326.986v0.004c0,2.16,1.74,3.917,3.9,3.938l4.215,0.04
						c2.19,0.021,3.976-1.748,3.976-3.938v-0.005c0-2.16-1.74-3.917-3.9-3.938l-4.215-0.04
						C636.308,323.027,634.522,324.797,634.522,326.986z"/>
					<path style="fill:#FC6A64;" d="M537.8,326.061v0.003c0,2.16,1.74,3.917,3.9,3.938l4.215,0.04
						c2.189,0.021,3.975-1.748,3.975-3.938v-0.003c0-2.16-1.74-3.917-3.9-3.938l-4.214-0.04
						C539.586,322.103,537.8,323.872,537.8,326.061z"/>
					<path style="fill:#FC6A64;" d="M561.98,326.293v0.003c0,2.16,1.74,3.917,3.9,3.938l4.215,0.04
						c2.19,0.021,3.976-1.748,3.976-3.938v-0.003c0-2.16-1.74-3.917-3.9-3.938l-4.215-0.04
						C563.766,322.334,561.98,324.103,561.98,326.293z"/>
				</g>
				<g style="opacity:0.4;">
					<path style="fill:#FC6A64;" d="M469.234,321.43c-2.189-0.021-3.975,1.748-3.975,3.938v0.001c0,0.759,0.224,1.463,0.597,2.065
						c0.194,0.031,0.388,0.063,0.59,0.065l4.215,0.04c2.189,0.021,3.976-1.748,3.976-3.938V323.6c0-0.759-0.224-1.463-0.597-2.065
						c-0.194-0.031-0.388-0.063-0.591-0.065L469.234,321.43z"/>
					<path style="fill:#FC6A64;" d="M493.414,321.662c-2.189-0.021-3.975,1.748-3.975,3.938v0.001c0,0.759,0.224,1.463,0.597,2.065
						c0.194,0.031,0.388,0.063,0.591,0.065l4.215,0.04c2.189,0.021,3.976-1.748,3.976-3.938v-0.002c0-0.759-0.224-1.463-0.597-2.065
						c-0.194-0.031-0.388-0.063-0.591-0.065L493.414,321.662z"/>
					<path style="fill:#FC6A64;" d="M517.595,321.893c-2.189-0.021-3.975,1.748-3.975,3.938v0.002c0,0.759,0.224,1.463,0.597,2.065
						c0.194,0.031,0.388,0.063,0.591,0.065l4.215,0.04c2.189,0.021,3.976-1.748,3.976-3.938v-0.002c0-0.759-0.224-1.463-0.597-2.065
						c-0.194-0.031-0.388-0.063-0.591-0.065L517.595,321.893z"/>
					<path style="fill:#FC6A64;" d="M420.873,320.968c-2.189-0.021-3.976,1.748-3.976,3.938c0,0.759,0.224,1.463,0.597,2.065
						c0.194,0.031,0.388,0.063,0.591,0.065l4.215,0.04c2.189,0.021,3.975-1.748,3.975-3.938v0c0-0.759-0.224-1.463-0.597-2.065
						c-0.194-0.031-0.388-0.063-0.591-0.065L420.873,320.968z"/>
					<path style="fill:#FC6A64;" d="M445.053,321.199c-2.189-0.021-3.975,1.748-3.975,3.938v0.001c0,0.759,0.224,1.463,0.597,2.064
						c0.194,0.031,0.388,0.063,0.591,0.065l4.215,0.04c2.189,0.021,3.976-1.748,3.976-3.938v-0.001c0-0.759-0.224-1.463-0.597-2.064
						c-0.194-0.031-0.388-0.063-0.591-0.065L445.053,321.199z"/>
					<path style="fill:#FC6A64;" d="M590.136,322.586c-2.189-0.021-3.975,1.748-3.975,3.938v0.004c0,0.759,0.224,1.463,0.597,2.065
						c0.194,0.031,0.388,0.063,0.591,0.065l4.215,0.04c2.189,0.021,3.976-1.748,3.976-3.938v-0.004c0-0.759-0.224-1.463-0.597-2.065
						c-0.194-0.031-0.388-0.063-0.591-0.065L590.136,322.586z"/>
					<path style="fill:#FC6A64;" d="M614.317,322.817c-2.189-0.021-3.976,1.748-3.976,3.938v0.004c0,0.759,0.224,1.463,0.597,2.064
						c0.194,0.031,0.388,0.063,0.591,0.065l4.214,0.04c2.189,0.021,3.975-1.748,3.975-3.938v-0.004c0-0.759-0.224-1.463-0.597-2.065
						c-0.194-0.031-0.388-0.063-0.591-0.065L614.317,322.817z"/>
					<path style="fill:#FC6A64;" d="M638.497,323.048c-2.189-0.021-3.975,1.748-3.975,3.938v0.004c0,0.759,0.224,1.463,0.597,2.065
						c0.194,0.031,0.388,0.063,0.591,0.065l4.215,0.04c2.189,0.021,3.976-1.748,3.976-3.938v-0.005c0-0.759-0.224-1.463-0.597-2.065
						c-0.194-0.031-0.388-0.063-0.591-0.065L638.497,323.048z"/>
					<path style="fill:#FC6A64;" d="M541.775,322.124c-2.189-0.021-3.976,1.748-3.976,3.938v0.003c0,0.759,0.224,1.463,0.597,2.065
						c0.194,0.031,0.388,0.063,0.591,0.065l4.215,0.04c2.189,0.021,3.975-1.748,3.975-3.938v-0.003c0-0.759-0.224-1.463-0.597-2.065
						c-0.194-0.031-0.388-0.063-0.591-0.065L541.775,322.124z"/>
					<path style="fill:#FC6A64;" d="M565.956,322.355c-2.189-0.021-3.976,1.748-3.976,3.938v0.003c0,0.759,0.224,1.463,0.597,2.065
						c0.194,0.031,0.388,0.063,0.591,0.065l4.215,0.04c2.189,0.021,3.976-1.748,3.976-3.938v-0.003c0-0.759-0.224-1.463-0.597-2.064
						c-0.194-0.031-0.388-0.063-0.591-0.065L565.956,322.355z"/>
				</g>
			</g>
		</g>
		<g>
			<g>
				<path style="fill:#072035;" d="M358.95,319.849v72.573c0,7.056-5.72,12.775-12.775,12.775h-51.828l-2.285-70.846l35.88-22.625
					L358.95,319.849z"/>
			</g>
			<path style="fill:#010F19;" d="M317.254,331.276c-21.12,0-32.622,20.59-32.622,45.895c0,25.305,11.502,28.881,32.622,28.881
				c21.12,0,38.305-3.576,38.305-28.881C355.559,351.867,338.373,331.276,317.254,331.276z"/>
		</g>
		<g>
			<path style="fill:#072035;" d="M310.414,346.822c-16.589,0-30.088,17.469-30.088,38.937s13.499,38.937,30.088,38.937h12.438
				v-77.874H310.414z"/>
			<g>
				<path style="fill:#0B3053;" d="M322.852,423.415c-15.884,0-28.806-16.893-28.806-37.656s12.922-37.655,28.806-37.655
					c15.884,0,28.807,16.892,28.807,37.655S338.736,423.415,322.852,423.415z"/>
				<g>
					<path style="fill:#072035;" d="M322.852,349.384c15.178,0,27.526,16.318,27.526,36.375c0,20.057-12.348,36.375-27.526,36.375
						c-15.178,0-27.526-16.318-27.526-36.375C295.326,365.702,307.674,349.384,322.852,349.384 M322.852,346.822
						c-16.589,0-30.088,17.469-30.088,38.937s13.499,38.937,30.088,38.937c16.589,0,30.088-17.469,30.088-38.937
						S339.441,346.822,322.852,346.822L322.852,346.822z"/>
				</g>
			</g>
			<g>
				<ellipse style="fill:#1454AE;" cx="322.852" cy="385.759" rx="15.853" ry="20.515"/>
				<g>
					<path style="fill:#0B3053;" d="M322.852,367.268c-0.956,0-1.735,1.008-1.735,2.245c0,1.243,0.779,2.252,1.735,2.252
						c0.961,0,1.74-1.009,1.74-2.252C324.592,368.277,323.812,367.268,322.852,367.268z"/>
					<path style="fill:#0B3053;" d="M312.748,395.658c-0.678,0.877-0.678,2.3,0,3.177c0.326,0.428,0.763,0.663,1.228,0.663
						c0.464,0,0.902-0.235,1.227-0.663c0.678-0.877,0.678-2.3,0-3.177c-0.326-0.425-0.775-0.637-1.226-0.637
						S313.076,395.233,312.748,395.658z"/>
					<path style="fill:#0B3053;" d="M312.748,372.684c-0.678,0.877-0.678,2.307,0,3.184c0.326,0.421,0.763,0.656,1.228,0.656
						c0.464,0,0.902-0.235,1.227-0.656c0.678-0.877,0.678-2.307,0-3.184c-0.326-0.425-0.775-0.637-1.226-0.637
						S313.076,372.259,312.748,372.684z"/>
					<path style="fill:#0B3053;" d="M310.298,383.514c-0.956,0-1.735,1.008-1.735,2.245c0,1.243,0.779,2.252,1.735,2.252
						c0.961,0,1.74-1.008,1.74-2.252C312.038,384.523,311.259,383.514,310.298,383.514z"/>
					<path style="fill:#0B3053;" d="M330.5,395.658c-0.678,0.877-0.678,2.3,0,3.177c0.336,0.442,0.785,0.663,1.228,0.663
						c0.443,0,0.891-0.221,1.228-0.663c0.678-0.877,0.678-2.3,0-3.177c-0.339-0.439-0.783-0.658-1.228-0.658
						C331.284,395,330.839,395.219,330.5,395.658z"/>
					<path style="fill:#0B3053;" d="M330.5,372.684c-0.678,0.877-0.678,2.307,0,3.184c0.336,0.435,0.785,0.656,1.228,0.656
						c0.443,0,0.891-0.221,1.228-0.656c0.678-0.877,0.678-2.307,0-3.184c-0.339-0.439-0.783-0.658-1.228-0.658
						C331.284,372.026,330.839,372.245,330.5,372.684z"/>
					<path style="fill:#0B3053;" d="M322.852,399.754c-0.956,0-1.735,1.008-1.735,2.252c0,1.243,0.779,2.252,1.735,2.252
						c0.961,0,1.74-1.009,1.74-2.252C324.592,400.762,323.812,399.754,322.852,399.754z"/>
					<path style="fill:#0B3053;" d="M335.405,383.514c-0.961,0-1.74,1.008-1.74,2.245c0,1.243,0.779,2.252,1.74,2.252
						c0.956,0,1.735-1.008,1.735-2.252C337.14,384.523,336.361,383.514,335.405,383.514z"/>
				</g>
				<path style="fill:#072035;" d="M322.852,373.685c-5.146,0-9.33,5.422-9.33,12.074c0,6.659,4.185,12.074,9.33,12.074
					c5.145,0,9.33-5.415,9.33-12.074C332.182,379.107,327.997,373.685,322.852,373.685z"/>
			</g>
		</g>
		<g>
			<path style="fill:#010F19;" d="M176.922,340.184c-16.589,0-30.088,17.469-30.088,38.937c0,21.468,13.499,38.937,30.088,38.937
				h12.438v-77.874H176.922z"/>
			<g>
				<path style="fill:#05151E;" d="M189.359,416.559c-15.763,0-28.587-16.794-28.587-37.438c0-20.643,12.824-37.436,28.587-37.436
					s28.588,16.794,28.588,37.436C217.947,399.765,205.123,416.559,189.359,416.559z"/>
				<g>
					<path style="fill:#010F19;" d="M189.359,343.184c14.936,0,27.088,16.121,27.088,35.937c0,19.816-12.151,35.937-27.088,35.937
						s-27.088-16.121-27.088-35.937C162.272,359.306,174.423,343.184,189.359,343.184 M189.359,340.184
						c-16.589,0-30.088,17.469-30.088,38.937c0,21.468,13.499,38.937,30.088,38.937c16.589,0,30.088-17.469,30.088-38.937
						C219.447,357.653,205.949,340.184,189.359,340.184L189.359,340.184z"/>
				</g>
			</g>
		</g>
		<g>
			<path style="fill:#0B3053;" d="M240.775,259.13c-5.37,2.95-14.59,5.25-30.55,5.25c-4.19,0-9.54,0.08-15.74,0.17
				c-4.91,0.08-10.21,0.16-15.74,0.21c-1.44,0.02-2.91,0.03-4.38,0.04c-1.19,0.01-2.38,0.01-3.58,0.01
				c-1.2,0.01-2.41,0.01-3.62,0.01c-0.01,0-0.01,0-0.01,0c-4.24,0-8.18-0.03-11.85-0.09c-0.37,0-0.73-0.01-1.09-0.02
				c-0.78-0.01-1.53-0.02-2.28-0.04c-2.04-0.04-4-0.09-5.87-0.15c-1.1-0.04-2.18-0.08-3.22-0.12c-3.13-0.11-5.99-0.26-8.61-0.43
				c-0.44-0.02-0.87-0.05-1.29-0.08c-0.85-0.06-1.67-0.11-2.46-0.17h-0.04c-0.78-0.07-1.54-0.13-2.27-0.19
				c-0.13-0.01-0.26-0.02-0.38-0.03c-1.28-0.12-2.48-0.23-3.61-0.35c-0.06-0.01-0.11-0.01-0.17-0.02c-0.97-0.11-1.89-0.22-2.76-0.33
				c-1.77-0.22-3.32-0.46-4.7-0.7c-6.08-1.07-8.61-2.26-9.63-3.18l-0.12-0.1l-0.11-0.1c-0.14-0.11-0.27-0.23-0.4-0.36
				C149.905,251.32,195.875,255.78,240.775,259.13z"/>
			<g>
				<g>
					<path style="fill:#0B3053;" d="M174.362,238.997v4c7.57,0,11.542,2.274,11.842,3.811c0.183,0.935-0.85,2.77-3.571,4.76
						c-3.349,2.45-8.35,4.457-13.72,5.506c-2.745,0.536-5.45,0.808-8.04,0.808c-7.571,0-11.543-2.274-11.843-3.811
						c-0.457-2.339,5.761-8.013,17.291-10.266c2.744-0.536,5.449-0.808,8.04-0.808L174.362,238.997 M174.361,238.997
						c-2.764,0-5.743,0.284-8.807,0.882c-12.434,2.429-21.589,9.126-20.45,14.958c0.859,4.395,7.317,7.044,15.769,7.044
						c2.764,0,5.743-0.284,8.807-0.882c12.434-2.429,21.589-9.126,20.45-14.958C189.271,241.646,182.813,238.996,174.361,238.997
						L174.361,238.997z"/>
				</g>
				<path style="fill:none;stroke:#0B3053;stroke-width:4;stroke-miterlimit:10;" d="M153.51,246.461
					c4.593,1.197,9.611,3.307,13.021,7.544c5.704-2.929,15.188-5.421,21.598-5.58"/>
			</g>
			<g>
				<path style="fill:#0B3053;" d="M232.989,252.7v8.486c-1.74,0.07-55.97,3.614-59.32,3.564v-13.56c0-8.89,5.32-16.36,12.84-19.34
					c-1.92-2.5-3.09-5.65-3.09-9.04c0-7.68,5.99-13.81,13.39-13.81c0.18,0,0.35,0.02,0.51,0.02l12.02,0.43
					c7.64,0.27,13.88,6.88,13.88,14.67c0,3.34-1.15,6.38-3.08,8.76C227.659,236.25,232.989,243.95,232.989,252.7z"/>
			</g>
			<g>
				<path style="fill:#0B3053;" d="M254.775,210.01c-2.16,12.08-4.75,27.4-6.23,38.18c-0.41,2.9-1.24,8.94-11.88,12.77v-9.77
					c0-8.89,5.32-16.36,12.84-19.34c-1.92-2.5-3.09-5.65-3.09-9.04C246.415,216.98,249.865,212.04,254.775,210.01z"/>
			</g>
		</g>
		<g>
			<g>
				<path style="fill:#05151E;" d="M90.572,250.813h-4.176c-2.895,0-5.243-2.347-5.243-5.243v-31.544
					c0-2.895,2.347-5.243,5.243-5.243h4.176c2.896,0,5.243,2.347,5.243,5.243v31.544C95.815,248.465,93.468,250.813,90.572,250.813z
					"/>
				<path style="fill:none;stroke:#05151E;stroke-width:2.3442;stroke-miterlimit:10;" d="M89.097,248.444v23.114
					c0,2.554,1.932,4.694,4.473,4.955l13.196,1.352"/>
				<path style="fill:#05151E;" d="M107.657,282.02h-3.482c-1.066,0-1.931-0.865-1.931-1.931v-4.904
					c0-1.067,0.865-1.931,1.931-1.931h3.482c1.067,0,1.931,0.865,1.931,1.931v4.904C109.589,281.155,108.724,282.02,107.657,282.02z
					"/>
			</g>
			<path style="fill:#FCBF38;" d="M354.878,197.276c-1.534-8.125-4.484-13.304-8.522-17.117c-4.513-4.261-10.462-6.674-16.651-7.146
				c0,0-43.009-1.51-51.039-1.422c-28.483,0.313-95.666-0.252-113.408,0.734c-16.307,0.906-26.211,3.643-33.517,6.381
				c-6.149,2.304-13.507,9.002-16.278,14.956c-10.989,23.609-15.778,49.985-18.548,75.842c-3.198,29.867-2.697,60.817,1.351,90.581
				l159.238,9.57h33.297c1.853,0,3.463-1.273,3.892-3.075l3.99-16.792c3.699-15.565,17.082-26.92,33.041-28.035l27.225-1.902
				C357.648,289.234,357.309,210.15,354.878,197.276z M256.913,198.359c-2.25,11.814-6.335,35.085-8.371,49.829
				c-0.612,4.427-2.237,16.189-38.318,16.189c-4.188,0-9.54,0.082-15.738,0.177c-8.257,0.126-17.617,0.27-27.323,0.27
				c-0.003,0-0.005,0-0.008,0c-46.776,0-57.815-3.699-60.233-5.904l-0.111-0.102l-0.118-0.096c-1.877-1.515-2.788-3.928-2.378-6.299
				c1.359-7.855,4.866-24.879,9.386-38.862c2.756-8.523,6.081-16.003,7.818-19.702c0.903-1.925,2.44-3.439,4.326-4.262
				c2.488-1.086,7.025-2.432,14.519-2.68c5.565-0.184,13.395-0.675,22.46-1.244c18.078-1.134,79.309-2.156,85.998-1.39l0.638,0.067
				c2.507,0.252,5.078,0.663,6.558,2.645C257.612,189.134,257.923,193.064,256.913,198.359z M265.211,276.215
				c-0.494-25.794,0.346-55.515,8.058-81.034c1.68-5.557,6.487-9.595,12.262-10.189c10.285-1.056,27.53-2.249,42.676-0.523
				c5.776,0.658,10.267,5.338,10.71,11.135c0.892,11.685,1.911,31.898-0.071,47.412c-0.386,3.017-2.568,5.493-5.502,6.297
				c-0.553,0.152-1.133,0.311-1.726,0.473c-6.851,1.878-13.469,4.523-19.728,7.882l-40.87,21.935
				C268.424,280.997,265.268,279.161,265.211,276.215z"/>
			<path style="fill:#0B3053;" d="M295.985,252.7v13.5l-24.97,13.4c-2.59,1.4-5.75-0.44-5.8-3.39c-0.41-21.14,0.08-44.91,4.52-66.85
				l2.6,0.09c7.64,0.27,13.88,6.88,13.88,14.67c0,3.34-1.15,6.38-3.08,8.76C290.655,236.25,295.985,243.95,295.985,252.7z"/>
			<path style="opacity:0.3;fill:#FCBF38;" d="M354.878,197.276c-1.534-8.125-4.484-13.304-8.522-17.117
				c-4.513-4.261-10.462-6.674-16.651-7.146c0,0-37.575-1.595-48.403,0.838c-5.494,1.235-11.901,7.609-14.231,14.121
				c-9.288,25.958-12.192,150.5-12.192,181.476l2.626,0.206h33.297c1.853,0,3.463-1.273,3.892-3.075l3.99-16.792
				c3.699-15.565,17.082-26.92,33.041-28.035l27.225-1.902C357.648,289.234,357.309,210.15,354.878,197.276z M338.845,243.016
				c-0.386,3.017-2.568,5.493-5.502,6.297c-0.553,0.152-1.133,0.311-1.726,0.473c-6.851,1.878-13.47,4.523-19.728,7.882
				l-40.87,21.935c-2.596,1.393-5.752-0.443-5.809-3.388c-0.494-25.794,0.346-55.515,8.058-81.034
				c1.68-5.557,6.487-9.595,12.262-10.189c10.285-1.056,27.53-2.249,42.676-0.523c5.776,0.658,10.267,5.338,10.71,11.135
				C339.809,207.289,340.827,227.503,338.845,243.016z"/>
			<g>
				<path style="fill:#072035;" d="M311.193,183.598v2c6.137,0,11.785,0.289,16.788,0.859c4.812,0.548,8.572,4.459,8.942,9.3
					c0.83,10.878,1.927,31.45-0.061,47.006c-0.283,2.211-1.871,4.025-4.047,4.622l-1.726,0.473
					c-6.986,1.915-13.764,4.623-20.145,8.049l-40.87,21.935c-0.293,0.157-0.602,0.237-0.919,0.237c-0.938,0-1.921-0.711-1.944-1.902
					c-0.453-23.659,0.044-54.181,7.973-80.417c1.458-4.824,5.599-8.269,10.552-8.778c6.148-0.631,15.556-1.384,25.456-1.384
					L311.193,183.598 M311.192,183.598c-9.812,0-19.137,0.725-25.66,1.395c-5.775,0.593-10.582,4.631-12.262,10.189
					c-7.712,25.519-8.552,55.24-8.058,81.034c0.043,2.258,1.907,3.863,3.944,3.863c0.621,0,1.258-0.149,1.865-0.475l40.87-21.935
					c6.259-3.359,12.878-6.004,19.728-7.882c0.593-0.163,1.173-0.322,1.726-0.473c2.934-0.804,5.116-3.28,5.502-6.297
					c1.982-15.513,0.963-35.727,0.071-47.412c-0.443-5.797-4.933-10.476-10.71-11.135
					C322.668,183.839,316.849,183.598,311.192,183.598L311.192,183.598z"/>
			</g>
			<g>
				<g>
					<path style="fill:#072035;" d="M338.917,195.604c-0.283-3.703-2.222-6.945-5.089-8.979c0.78,1.454,1.279,3.081,1.411,4.811
						c0.892,11.685,1.911,31.898-0.071,47.412c-0.385,3.017-2.568,5.493-5.502,6.297c-0.553,0.152-1.133,0.311-1.726,0.473
						c-6.851,1.878-13.47,4.523-19.728,7.882l-40.87,21.935c-0.696,0.373-1.43,0.509-2.136,0.459
						c0.002,0.106,0.003,0.215,0.005,0.32c0.056,2.946,3.213,4.782,5.809,3.388l40.87-21.935c6.259-3.359,12.878-6.004,19.728-7.882
						c0.593-0.163,1.173-0.322,1.726-0.473c2.934-0.804,5.116-3.28,5.502-6.297C340.827,227.503,339.809,207.289,338.917,195.604z"
						/>
				</g>
			</g>
			<g>
				<path style="opacity:0.85;fill:#81BCF7;" d="M265.211,276.215c-0.494-25.794,0.346-55.515,8.058-81.034
					c1.68-5.557,6.487-9.595,12.262-10.189c10.285-1.056,27.53-2.249,42.676-0.523c5.776,0.658,10.267,5.338,10.71,11.135
					c0.892,11.685,1.911,31.898-0.071,47.412c-0.386,3.017-2.568,5.493-5.502,6.297c-0.553,0.152-1.133,0.311-1.726,0.473
					c-6.851,1.878-13.469,4.523-19.728,7.882l-40.87,21.935C268.424,280.997,265.268,279.161,265.211,276.215z"/>
				<g>
					<path style="opacity:0.2;fill:#81BCF7;" d="M290.513,184.528l-24.916,59.854c-0.559,10.889-0.58,21.667-0.386,31.834
						c0.056,2.946,3.213,4.782,5.809,3.388l3.268-1.754l30.909-94.165C299.857,183.834,294.835,184.161,290.513,184.528z"/>
					<path style="opacity:0.2;fill:#81BCF7;" d="M321.104,253.35l14.835-64.814c-1.931-2.206-4.643-3.714-7.731-4.066
						c-3.233-0.368-6.563-0.598-9.9-0.73l-26.884,82.481c0.568,0.536,1.167,1.029,1.802,1.465l18.664-10.017
						C314.882,256.062,317.96,254.624,321.104,253.35z"/>
				</g>
				<g>
					<path style="fill:#072035;" d="M311.193,186.598L311.193,186.598c6.099,0,11.709,0.287,16.675,0.853
						c4.336,0.494,7.725,4.019,8.058,8.382c0.828,10.84,1.921,31.335-0.056,46.803c-0.231,1.809-1.534,3.295-3.319,3.784
						l-1.725,0.473c-7.058,1.935-13.906,4.671-20.354,8.132l-40.87,21.935c-0.148,0.079-0.294,0.118-0.446,0.118
						c-0.385,0-0.932-0.286-0.944-0.921c-0.452-23.586,0.042-54.006,7.93-80.109c1.341-4.436,5.147-7.605,9.697-8.072
						C291.963,187.348,301.334,186.598,311.193,186.598 M311.192,183.598c-9.812,0-19.137,0.725-25.66,1.395
						c-5.775,0.593-10.582,4.631-12.262,10.189c-7.712,25.519-8.552,55.24-8.058,81.034c0.043,2.258,1.907,3.863,3.944,3.863
						c0.621,0,1.258-0.149,1.865-0.475l40.87-21.935c6.259-3.359,12.878-6.004,19.728-7.882c0.593-0.163,1.173-0.322,1.726-0.473
						c2.934-0.804,5.116-3.28,5.502-6.297c1.982-15.513,0.963-35.727,0.071-47.412c-0.443-5.797-4.933-10.476-10.71-11.135
						C322.668,183.839,316.849,183.598,311.192,183.598L311.192,183.598z"/>
				</g>
				<g>
					<g>
						<path style="fill:#072035;" d="M338.917,195.604c-0.283-3.703-2.222-6.945-5.089-8.979c0.78,1.454,1.279,3.081,1.411,4.811
							c0.892,11.685,1.911,31.898-0.071,47.412c-0.385,3.017-2.568,5.493-5.502,6.297c-0.553,0.152-1.133,0.311-1.726,0.473
							c-6.851,1.878-13.47,4.523-19.728,7.882l-40.87,21.935c-0.696,0.373-1.43,0.509-2.136,0.459
							c0.002,0.106,0.003,0.215,0.005,0.32c0.056,2.946,3.213,4.782,5.809,3.388l40.87-21.935
							c6.259-3.359,12.878-6.004,19.728-7.882c0.593-0.163,1.173-0.322,1.726-0.473c2.934-0.804,5.116-3.28,5.502-6.297
							C340.827,227.503,339.809,207.289,338.917,195.604z"/>
					</g>
				</g>
			</g>
			<g>
				<path style="fill:#05151E;" d="M295.03,255.963h5.344c3.706,0,6.709-3.004,6.709-6.709v-40.368c0-3.706-3.004-6.709-6.709-6.709
					h-5.344c-3.706,0-6.71,3.004-6.71,6.709v40.368C288.321,252.959,291.325,255.963,295.03,255.963z"/>
				<path style="fill:none;stroke:#05151E;stroke-width:3;stroke-miterlimit:10;" d="M296.918,252.932v29.58
					c0,3.269-2.473,6.008-5.725,6.341l-16.888,1.73"/>
				<path style="fill:#05151E;" d="M273.165,295.9h4.456c1.365,0,2.471-1.107,2.471-2.471v-6.275c0-1.365-1.107-2.472-2.472-2.472
					h-4.456c-1.365,0-2.472,1.107-2.472,2.471v6.276C270.694,294.794,271.8,295.9,273.165,295.9z"/>
			</g>
			<path style="fill:#0B3053;" d="M249.389,179.317c-31.432-1.581-87.631,1.891-109.192,2.604c-7.853,0.26-13.03,1.644-16.353,3.094
				c-3.031,1.323-5.448,3.727-6.853,6.72c-1.886,4.016-5.242,11.606-8.049,20.289c-4.636,14.343-8.182,31.614-9.555,39.547
				c-0.721,4.164,0.877,8.389,4.165,11.043l0,0c10.751,9.806,81.434,6.763,106.672,6.763c38.935,0,42.33-13.694,43.271-20.505
				c1.948-14.102,5.905-36.842,8.331-49.577C265.504,179.986,252.912,179.494,249.389,179.317z M256.913,198.359
				c-2.25,11.814-6.335,35.085-8.371,49.829c-0.612,4.427-2.237,16.189-38.318,16.189c-4.188,0-9.54,0.082-15.738,0.177
				c-8.257,0.126-17.617,0.27-27.323,0.27c-0.003,0-0.005,0-0.008,0c-46.776,0-57.815-3.699-60.233-5.904l-0.111-0.102l-0.118-0.096
				c-1.877-1.515-2.788-3.928-2.378-6.299c1.359-7.855,4.866-24.879,9.386-38.862c2.756-8.523,6.081-16.003,7.818-19.702
				c0.903-1.925,2.44-3.439,4.326-4.262c2.488-1.086,7.025-2.432,14.519-2.68c5.565-0.184,13.395-0.675,22.46-1.244
				c18.078-1.134,79.309-2.156,85.998-1.39l0.638,0.067c2.507,0.252,5.078,0.663,6.558,2.645
				C257.612,189.134,257.923,193.064,256.913,198.359z"/>
			<path style="opacity:0.85;fill:#81BCF7;" d="M256.915,198.36c-2.25,11.81-6.34,35.08-8.37,49.83
				c-0.62,4.43-2.24,16.19-38.32,16.19c-4.19,0-9.54,0.08-15.74,0.17c-4.91,0.08-10.21,0.16-15.74,0.21
				c-1.44,0.02-2.91,0.03-4.38,0.04c-1.19,0.01-2.38,0.01-3.58,0.01c-1.2,0.01-2.41,0.01-3.62,0.01c-0.01,0-0.01,0-0.01,0
				c-4.24,0-8.18-0.03-11.85-0.09c-0.37,0-0.73-0.01-1.09-0.02c-0.78-0.01-1.53-0.02-2.28-0.04c-2.04-0.04-4-0.09-5.87-0.15
				c-1.1-0.04-2.18-0.08-3.22-0.12c-3.13-0.11-5.99-0.26-8.61-0.43c-0.44-0.02-0.87-0.05-1.29-0.08c-0.85-0.06-1.67-0.11-2.46-0.17
				h-0.04c-0.78-0.07-1.54-0.13-2.27-0.19c-0.13-0.01-0.26-0.02-0.38-0.03c-1.28-0.12-2.48-0.23-3.61-0.35
				c-0.06-0.01-0.11-0.01-0.17-0.02c-0.97-0.11-1.89-0.22-2.76-0.33c-1.77-0.22-3.32-0.46-4.7-0.7c-6.08-1.07-8.61-2.26-9.63-3.18
				l-0.12-0.1l-0.11-0.1c-1.88-1.51-2.79-3.93-2.38-6.3c1.36-7.85,4.86-24.88,9.38-38.86c2.76-8.52,6.09-16,7.82-19.7
				c0.91-1.93,2.44-3.44,4.33-4.26c2.49-1.09,7.02-2.43,14.52-2.68c5.56-0.19,13.39-0.68,22.46-1.25c3.1-0.19,7.48-0.39,12.63-0.56
				c15.71-0.55,38.63-0.98,54.79-1.07c9.42-0.06,16.54,0.01,18.58,0.24l0.63,0.07c2.51,0.25,5.08,0.66,6.56,2.65
				C257.615,189.13,257.925,193.06,256.915,198.36z"/>
			<path style="opacity:0.2;fill:#81BCF7;" d="M230.245,184.04l-51.5,80.72c-1.44,0.02-2.91,0.03-4.38,0.04
				c-1.19,0.01-2.38,0.01-3.58,0.01c-1.2,0.01-2.41,0.01-3.62,0.01c-0.01,0-0.01,0-0.01,0c-4.24,0-8.18-0.03-11.85-0.09
				c-0.37,0-0.73-0.01-1.09-0.02c-0.77-0.01-1.53-0.02-2.28-0.04c-2.04-0.04-4-0.09-5.87-0.15c-1.1-0.04-2.18-0.07-3.22-0.12
				c-3.13-0.11-5.99-0.26-8.61-0.43c-0.44-0.02-0.87-0.05-1.29-0.08c-0.85-0.05-1.66-0.11-2.46-0.17h-0.04
				c-0.78-0.07-1.54-0.13-2.27-0.19c-0.13-0.01-0.26-0.02-0.38-0.03c-1.28-0.11-2.48-0.23-3.61-0.35c-0.06-0.01-0.11-0.01-0.17-0.02
				c-0.97-0.1-1.89-0.21-2.76-0.33c-1.77-0.22-3.32-0.46-4.7-0.7l58.9-76.99C191.165,184.56,214.085,184.13,230.245,184.04z"/>
			<g>
				<g>
					<path style="fill:#0B3053;" d="M114.031,344.31c-0.709-0.035-1.265-0.62-1.265-1.331v-25.492c0-0.735,0.598-1.333,1.332-1.333
						l93.293,2.007c0.719,0.016,1.304,0.613,1.304,1.333v28.252c0,0.735-0.597,1.333-1.331,1.333L114.031,344.31z"/>
					<path style="fill:#072035;" d="M114.098,314.809l0.001,2.688l93.253,1.996l0.011,28.241l-93.253-4.756l-0.013-25.482l0.001,0
						L114.098,314.809 M114.098,314.809c-1.474,0-2.676,1.196-2.676,2.677v25.492c0,1.426,1.117,2.601,2.541,2.674l93.263,4.767
						c0.047,0.002,0.093,0.004,0.139,0.004c1.468,0,2.675-1.192,2.675-2.678v-28.252c0-1.456-1.164-2.646-2.62-2.677l-93.263-2.007
						C114.138,314.809,114.118,314.809,114.098,314.809L114.098,314.809z"/>
				</g>
				<g>
					<g>
						
							<line style="fill:none;stroke:#FCBF38;stroke-width:6.2723;stroke-miterlimit:10;" x1="137.906" y1="314.793" x2="137.906" y2="346.98"/>
						
							<line style="fill:none;stroke:#FCBF38;stroke-width:6.2723;stroke-miterlimit:10;" x1="183.556" y1="315.865" x2="183.556" y2="349.542"/>
					</g>
					<g>
						
							<line style="fill:none;stroke:#FCBF38;stroke-width:6.2723;stroke-miterlimit:10;" x1="109.72" y1="324.307" x2="211.742" y2="327.571"/>
						
							<line style="fill:none;stroke:#FCBF38;stroke-width:6.2723;stroke-miterlimit:10;" x1="109.72" y1="337.661" x2="211.742" y2="340.925"/>
					</g>
				</g>
			</g>
			<g>
				<path style="fill:#81BCF7;" d="M96.672,348.236l-10.475,2.884c-2.128,0.586-3.603,2.521-3.603,4.728v10.274
					c0,3.381,1.584,6.566,4.28,8.607l0,0c1.663,1.259,3.656,2.008,5.736,2.159l108.576,7.838c1.584,0.114,3.173,0.159,4.761,0.134
					l46.071-0.729c1.597-0.025,3.016-1.327,3.016-2.923v-25.568l-41.097,1.475c-0.878,0.032-1.756,0.025-2.633-0.02l-110.241-5.623
					C99.084,351.369,97.355,350.096,96.672,348.236L96.672,348.236z"/>
				<path style="opacity:0.4;fill:#81BCF7;" d="M211.304,357.093l-110.241-5.623c-1.98-0.101-3.708-1.374-4.392-3.235l-10.475,2.884
					c-1.182,0.325-2.149,1.075-2.787,2.048l0.21,0.002l17.634,2.213c0.896,0.112,1.796,0.189,2.699,0.229l97.191,4.296
					c0,0,49.024,0.355,53.891-4.269l-41.097,1.475C213.059,357.145,212.181,357.138,211.304,357.093z"/>
				<g style="opacity:0.6;">
					<path style="fill:#81BCF7;" d="M114.461,374.623l-9.805-0.488c-2.744-0.136-4.899-2.401-4.899-5.148v-5.235
						c0-2.947,2.467-5.295,5.411-5.148l9.805,0.487c2.744,0.136,4.899,2.401,4.899,5.148v5.235
						C119.871,372.422,117.405,374.769,114.461,374.623z"/>
					<path style="fill:#81BCF7;" d="M188.888,378.623l-9.805-0.488c-2.744-0.136-4.899-2.401-4.899-5.148v-5.235
						c0-2.947,2.467-5.295,5.411-5.148l9.805,0.487c2.744,0.136,4.899,2.401,4.899,5.148v5.235
						C194.298,376.422,191.832,378.769,188.888,378.623z"/>
				</g>
				<g style="opacity:0.6;">
					<g>
						<path style="fill:#81BCF7;" d="M117.207,359.75c0.412,0.742,0.664,1.584,0.664,2.49v5.235c0,2.947-2.467,5.295-5.411,5.148
							l-9.805-0.487c-0.814-0.04-1.565-0.286-2.234-0.658c0.838,1.508,2.395,2.567,4.234,2.658l9.805,0.487
							c2.944,0.146,5.411-2.201,5.411-5.148v-5.235C119.872,362.307,118.794,360.632,117.207,359.75z"/>
					</g>
					<g>
						<path style="fill:#81BCF7;" d="M191.634,363.75c0.412,0.742,0.664,1.584,0.664,2.49v5.235c0,2.947-2.467,5.295-5.411,5.148
							l-9.805-0.487c-0.814-0.04-1.565-0.286-2.234-0.658c0.838,1.508,2.395,2.567,4.234,2.658l9.805,0.487
							c2.944,0.146,5.411-2.201,5.411-5.148v-5.235C194.298,366.307,193.221,364.632,191.634,363.75z"/>
					</g>
				</g>
			</g>
			<g>
				<path style="fill:#D6E6FD;" d="M216.228,313.531v36.544c0,2.13,1.727,3.857,3.857,3.857h24.347c2.13,0,3.857-1.727,3.857-3.857
					v-52.952c0-2.56-2.462-4.396-4.915-3.664c-3.756,1.121-9.255,4.134-12.744,6.233c-5.013,3.016-8.416,5.221-10.649,6.739
					C217.629,308.03,216.228,310.687,216.228,313.531z"/>
				<g>
					<path style="fill:#B7D7FD;" d="M219.228,345.888v-13.954c0-2.258,1.849-4.079,4.107-4.044l17.973,0.278
						c2.209,0.034,3.982,1.834,3.982,4.044v13.676c0,2.234-1.811,4.044-4.044,4.044h-17.973
						C221.039,349.933,219.228,348.122,219.228,345.888z"/>
					<path style="fill:#B7D7FD;" d="M219.228,320.844v-4.491c0-2.38,1.18-4.598,3.157-5.924c2.177-1.459,5.338-3.487,9.791-6.167
						c3.715-2.235,8.832-4.967,12.056-5.929c0.083-0.025,0.163-0.037,0.243-0.037c0.392,0,0.814,0.315,0.814,0.826v21.998
						c0,2.258-1.849,4.079-4.107,4.044l-17.973-0.278C221.001,324.854,219.228,323.053,219.228,320.844z"/>
				</g>
				<g style="opacity:0.3;">
					<g>
						<path style="fill:#B7D7FD;" d="M242.846,328.499c0.164,0.44,0.265,0.91,0.265,1.406v13.676c0,2.234-1.811,4.044-4.044,4.044
							h-17.973c-0.569,0-1.109-0.12-1.6-0.332c0.573,1.538,2.042,2.639,3.779,2.639h17.973c2.234,0,4.044-1.811,4.044-4.044v-13.676
							C245.29,330.549,244.285,329.119,242.846,328.499z"/>
					</g>
					<g>
						<path style="fill:#B7D7FD;" d="M244.475,298.297c-0.08,0-0.16,0.012-0.243,0.037c-0.35,0.104-0.731,0.238-1.121,0.382v20.099
							c0,2.258-1.849,4.079-4.107,4.044l-17.973-0.277c-0.546-0.008-1.066-0.126-1.538-0.33c0.565,1.518,2.004,2.611,3.717,2.638
							l17.973,0.277c2.258,0.035,4.107-1.786,4.107-4.044v-21.998C245.29,298.612,244.867,298.297,244.475,298.297z"/>
					</g>
				</g>
				<path style="opacity:0.4;fill:#B7D7FD;" d="M240.95,299.6l-8.26,10.41c-2.89,3.65-7.3,5.78-11.96,5.78h-1.48
					c0.17-2.17,1.32-4.14,3.14-5.36c2.17-1.46,5.33-3.49,9.79-6.17C234.79,302.69,238.1,300.88,240.95,299.6z"/>
				<path style="opacity:0.4;fill:#B7D7FD;" d="M228.87,327.98v4.67c0,2.14-1.73,3.86-3.86,3.86h-5.78v-4.58
					c0-2.25,1.85-4.07,4.11-4.04L228.87,327.98z"/>
			</g>
			<g>
				<path style="fill:#D6E6FD;" d="M106.2,307.38v36.55c0,2.13-1.73,3.86-3.86,3.86h-5.53c-1.77-17.26-2.36-34.82-1.74-52.24
					c3.28,2.01,5.67,3.58,7.38,4.73C104.8,301.88,106.2,304.54,106.2,307.38z"/>
				<g>
					<g>
						<path style="fill:#B7D7FD;" d="M103.2,325.79v13.95c0,2.24-1.81,4.05-4.04,4.05h-2.74c-0.67-7.29-1.13-14.63-1.38-21.99
							l4.05-0.06C101.35,321.71,103.2,323.53,103.2,325.79z"/>
						<path style="fill:#B7D7FD;" d="M103.2,310.21v4.49c0,2.21-1.77,4.01-3.98,4.04l-4.27,0.07c-0.15-5.94-0.16-11.89-0.03-17.83
							c2.12,1.32,3.8,2.41,5.12,3.3C102.02,305.61,103.2,307.83,103.2,310.21z"/>
					</g>
					<g style="opacity:0.3;">
						<g>
							<path style="fill:#B7D7FD;" d="M102.94,341.15c-0.58,1.53-2.05,2.64-3.78,2.64h-2.74c-0.07-0.77-0.14-1.54-0.21-2.31h5.13
								C101.9,341.48,102.44,341.36,102.94,341.15z"/>
						</g>
						<g>
							<path style="fill:#B7D7FD;" d="M102.94,316.1c-0.57,1.52-2.01,2.61-3.72,2.64l-4.27,0.07c-0.02-0.76-0.03-1.52-0.05-2.28
								l6.5-0.1C101.94,316.43,102.46,316.31,102.94,316.1z"/>
						</g>
					</g>
					<path style="opacity:0.4;fill:#B7D7FD;" d="M103.18,309.64h-1.48c-2.41,0-4.76-0.57-6.86-1.63c0-2.34,0.03-4.69,0.08-7.03
						c2.12,1.32,3.8,2.41,5.12,3.3C101.86,305.5,103.01,307.47,103.18,309.64z"/>
					<path style="opacity:0.4;fill:#B7D7FD;" d="M103.2,325.78v4.58h-5.78c-0.74,0-1.43-0.21-2.02-0.57
						c-0.15-2.66-0.27-5.32-0.36-7.98l4.05-0.07C101.35,321.71,103.2,323.53,103.2,325.78z"/>
				</g>
			</g>
			<g>
				<path style="fill:#0B3053;" d="M338.46,306.422L338.46,306.422c-2.803,0-5.075-2.272-5.075-5.075v-17.164
					c0-2.803,2.272-5.075,5.075-5.075l0,0c2.803,0,5.075,2.272,5.075,5.075v17.164C343.535,304.15,341.263,306.422,338.46,306.422z"
					/>
			</g>
			<g>
				<path style="fill:none;stroke:#FC9A38;stroke-linecap:round;stroke-linejoin:round;stroke-miterlimit:10;" d="M337.713,179.811
					c4.613,3.499,5.635,9.908,6.227,15.668c2.467,24.024,3.639,48.182,3.508,72.332"/>
				<path style="fill:none;stroke:#FC9A38;stroke-linecap:round;stroke-linejoin:round;stroke-miterlimit:10;" d="M347.603,272.856
					c-0.119,13.045-0.237,26.091-0.356,39.136"/>
				<path style="fill:none;stroke:#FC9A38;stroke-linecap:round;stroke-linejoin:round;stroke-miterlimit:10;" d="M288.371,360.919
					l4.222-17.589c3.819-16.072,17.639-27.799,34.119-28.95l15.86-1.06"/>
			</g>
		</g>
		<g>
			<g>
				<path style="fill:#FC6A64;" d="M185.812,170.976h-7.788v-3.894c0-2.151,1.743-3.894,3.894-3.894l0,0
					c2.151,0,3.894,1.743,3.894,3.894V170.976z"/>
				<path style="fill:#0B3053;" d="M186.679,171.797h-9.523v-0.961c0-0.638,0.517-1.155,1.155-1.155h7.213
					c0.638,0,1.155,0.517,1.155,1.155V171.797z"/>
				<path style="opacity:0.4;fill:#FC6A64;" d="M179.987,167.974c2.148,0,3.89-1.742,3.89-3.89v-0.004
					c0-0.125-0.007-0.249-0.019-0.371c-0.572-0.33-1.233-0.521-1.941-0.521h0c-2.151,0-3.894,1.743-3.894,3.894v0.892H179.987z"/>
			</g>
			<g>
				<path style="fill:#FC6A64;" d="M204.064,170.976h-7.788v-3.894c0-2.151,1.743-3.894,3.894-3.894l0,0
					c2.151,0,3.894,1.743,3.894,3.894V170.976z"/>
				<path style="fill:#0B3053;" d="M204.932,171.797h-9.523v-0.961c0-0.638,0.517-1.155,1.155-1.155h7.213
					c0.638,0,1.155,0.517,1.155,1.155V171.797z"/>
				<path style="opacity:0.4;fill:#FC6A64;" d="M198.24,167.974c2.148,0,3.89-1.742,3.89-3.89v-0.004
					c0-0.125-0.007-0.249-0.019-0.371c-0.572-0.33-1.233-0.521-1.941-0.521h0c-2.151,0-3.894,1.743-3.894,3.894v0.892H198.24z"/>
			</g>
			<g>
				<path style="fill:#FC6A64;" d="M222.317,170.976h-7.788v-3.894c0-2.151,1.743-3.894,3.894-3.894l0,0
					c2.151,0,3.894,1.743,3.894,3.894V170.976z"/>
				<path style="fill:#0B3053;" d="M223.184,171.797h-9.523v-0.961c0-0.638,0.517-1.155,1.155-1.155h7.213
					c0.638,0,1.155,0.517,1.155,1.155V171.797z"/>
				<path style="opacity:0.4;fill:#FC6A64;" d="M216.492,167.974c2.148,0,3.89-1.742,3.89-3.89v-0.004
					c0-0.125-0.007-0.249-0.019-0.371c-0.572-0.33-1.233-0.521-1.941-0.521l0,0c-2.151,0-3.894,1.743-3.894,3.894v0.892H216.492z"/>
			</g>
		</g>
	</g>
</g>
</svg>
